<?xml version="1.0" standalone="no"?>
<!DOCTYPE svg PUBLIC "-//W3C//DTD SVG 20010904//EN"
 "http://www.w3.org/TR/2001/REC-SVG-20010904/DTD/svg10.dtd">
<svg version="1.0" xmlns="http://www.w3.org/2000/svg"
 width="1240.000000pt" height="2448.000000pt" viewBox="0 0 1240.000000 2448.000000"
 preserveAspectRatio="xMidYMid meet">

<g transform="translate(0.000000,2448.000000) scale(0.100000,-0.100000)"
fill="#000000" stroke="none">
<path d="M10097 24224 c-3 -3 -198 -7 -433 -10 -236 -2 -584 -6 -774 -9 -190
-2 -435 -5 -545 -5 -110 0 -270 0 -355 -1 -85 0 -258 -1 -385 0 -126 0 -525 0
-885 0 -1174 -2 -1424 -1 -1465 1 -82 5 -255 -2 -249 -11 3 -5 -7 -4 -23 2
-19 7 -95 8 -238 3 -206 -7 -471 -9 -610 -5 -80 3 -183 3 -445 1 -270 -2 -280
-2 -273 -13 3 -5 -3 -6 -17 -2 -12 4 -62 8 -110 9 -49 0 -91 4 -95 7 -3 4 -23
3 -43 -2 -21 -4 -53 -6 -72 -3 -36 6 -119 6 -370 0 -80 -2 -242 -6 -361 -9
-134 -3 -224 -9 -237 -16 -12 -6 -33 -9 -47 -5 -14 3 -33 3 -42 -1 -10 -4 -45
-9 -78 -11 -73 -4 -326 -55 -375 -76 -19 -8 -41 -13 -49 -10 -9 3 -11 0 -6 -8
6 -10 1 -12 -19 -8 -14 3 -26 1 -26 -3 0 -5 -9 -9 -19 -9 -11 0 -22 -4 -26 -9
-3 -5 -19 -13 -36 -16 -17 -4 -63 -24 -102 -45 -40 -21 -100 -53 -134 -71 -35
-17 -63 -35 -63 -40 0 -4 -7 -9 -15 -11 -30 -6 -130 -86 -214 -169 -99 -99
-105 -106 -191 -218 -35 -47 -71 -93 -79 -102 -36 -40 -43 -51 -48 -84 -3 -19
-10 -35 -15 -35 -5 0 -7 -4 -3 -10 3 -5 -8 -44 -25 -87 -16 -43 -30 -85 -30
-93 0 -9 -4 -20 -10 -26 -9 -9 -37 -122 -47 -189 -2 -16 -8 -39 -13 -50 -8
-19 -23 -128 -35 -255 -10 -105 -16 -276 -17 -433 0 -138 -3 -160 -19 -181
-27 -35 -27 -149 0 -168 18 -13 19 -35 17 -558 -1 -300 1 -549 4 -555 3 -5 3
-54 0 -108 -3 -54 -2 -106 1 -115 3 -9 3 -46 -1 -82 -5 -49 -5 -550 -1 -640 1
-8 0 -247 -1 -530 -2 -283 -1 -543 2 -577 3 -35 3 -63 0 -63 -3 0 -3 -29 0
-65 3 -36 2 -69 -3 -74 -5 -5 -6 -14 -2 -21 5 -9 6 -255 2 -475 0 -11 1 -52 3
-91 2 -39 0 -75 -3 -81 -8 -12 3 -53 13 -53 5 0 11 6 13 13 3 6 5 -6 6 -28 0
-36 -1 -38 -10 -15 -8 20 -12 22 -19 10 -5 -9 -5 -19 1 -26 5 -7 9 -16 8 -20
-1 -5 -1 -16 1 -24 1 -11 4 -9 10 5 8 18 9 17 9 -7 1 -19 -4 -28 -15 -28 -11
0 -14 -5 -10 -16 3 -9 7 -25 7 -37 1 -14 4 -9 9 13 6 30 7 27 8 -25 0 -42 -2
-54 -8 -40 -11 25 -10 30 -17 -88 -5 -92 -4 -98 14 -103 19 -5 21 -15 22 -95
1 -55 -2 -89 -8 -89 -7 0 -9 19 -7 48 2 26 1 64 -4 83 -7 31 -8 28 -10 -26 -4
-120 -5 -341 -2 -367 3 -18 9 -25 18 -21 22 8 17 -11 -7 -25 -11 -7 -18 -19
-15 -27 6 -16 7 -113 6 -710 0 -253 2 -660 4 -905 3 -245 5 -471 5 -503 1 -36
5 -56 11 -52 6 3 10 -1 10 -10 0 -9 -5 -13 -10 -10 -7 4 -10 -6 -10 -27 2 -48
1 -428 -1 -528 -2 -106 -1 -706 4 -1847 2 -486 0 -883 -5 -883 -4 0 -8 -7 -8
-15 0 -8 5 -15 10 -15 6 0 10 -7 10 -16 0 -9 -5 -12 -12 -8 -8 5 -9 2 -3 -12
5 -10 10 -219 12 -464 1 -245 4 -562 8 -705 3 -143 5 -267 5 -275 0 -8 1 -98
1 -200 0 -144 0 -540 0 -905 0 -11 0 -227 1 -480 0 -253 0 -480 -1 -505 -1
-25 -1 -56 0 -70 0 -14 -2 -97 -6 -185 -10 -263 -10 -650 0 -810 5 -82 9 -354
9 -602 1 -249 4 -453 7 -453 3 0 4 -19 2 -42 -2 -24 -4 -47 -4 -53 -4 -53 4
-315 9 -315 8 0 11 -21 15 -92 1 -25 5 -44 10 -41 6 4 12 -29 8 -51 -2 -12 55
-217 79 -281 46 -126 61 -160 70 -163 6 -2 10 -10 10 -18 0 -17 29 -76 40 -84
4 -3 17 -24 29 -46 12 -23 31 -50 41 -59 11 -10 20 -24 20 -32 0 -7 4 -13 8
-13 4 0 16 -15 27 -32 10 -18 73 -87 139 -153 129 -129 228 -204 376 -283 68
-37 247 -112 266 -112 8 0 22 -4 32 -10 37 -21 279 -71 367 -75 22 -1 72 -7
111 -13 38 -6 171 -14 295 -17 123 -3 285 -9 359 -12 74 -4 164 -6 200 -5 36
0 83 0 105 0 22 -1 50 -1 63 0 31 2 39 2 212 2 85 0 178 -4 206 -8 28 -5 81
-5 120 0 38 4 119 8 179 7 126 -1 576 -5 1515 -13 360 -3 754 -9 875 -13 121
-4 398 -8 615 -7 1660 3 2345 4 3090 2 l855 -3 110 28 c61 16 125 35 143 44
19 8 61 23 95 33 84 24 161 55 203 79 19 12 42 21 50 21 8 0 14 5 14 10 0 6 4
10 9 10 19 0 271 166 271 179 0 4 11 14 25 21 13 7 22 17 19 22 -3 4 -2 8 3 8
14 1 127 113 163 164 19 26 51 66 71 87 20 21 34 41 31 44 -3 3 -1 5 5 5 6 0
19 17 30 38 10 20 27 49 37 64 10 15 15 32 11 38 -3 5 0 10 8 10 15 0 37 41
37 70 0 10 6 23 13 27 13 9 29 45 58 138 10 33 23 68 29 78 6 9 13 38 17 62 3
25 10 45 15 45 5 0 7 4 4 9 -4 5 -2 20 3 33 4 12 11 46 15 73 3 28 10 64 16
80 9 28 30 179 30 217 0 10 -6 18 -14 18 -10 0 -16 -19 -21 -62 -9 -97 -26
-209 -35 -248 -4 -19 -14 -60 -20 -90 -7 -30 -15 -59 -18 -65 -3 -5 -7 -16 -9
-25 -11 -62 -16 -80 -24 -80 -5 0 -9 -10 -9 -22 0 -21 0 -21 -14 -2 -8 10 -11
23 -6 29 4 5 11 35 15 65 3 30 15 100 25 155 30 157 41 320 40 590 -1 138 -2
495 -2 795 0 300 0 556 0 570 0 14 0 63 1 110 1 47 0 120 -1 163 -2 42 -1 77
2 77 4 0 4 255 -1 320 -1 14 2 178 6 365 4 187 7 358 5 380 -2 22 -2 510 -1
1085 3 1481 3 1779 1 2000 -1 107 2 203 5 213 4 9 3 17 -1 17 -5 0 -7 66 -5
147 2 82 5 250 5 376 0 125 4 227 7 227 4 0 5 28 3 63 -4 73 -4 81 -3 172 1
39 1 219 1 400 -1 182 1 372 3 423 1 50 0 94 -4 97 -5 2 -5 24 -2 47 5 36 6
99 1 371 -2 109 6 263 15 277 3 5 1 10 -5 10 -6 0 -9 8 -6 18 5 13 16 288 19
437 0 11 -3 29 -8 39 -6 15 -5 17 5 11 9 -6 11 -4 5 5 -10 17 -13 365 -4 403
4 15 5 27 1 27 -4 0 -7 22 -8 50 -1 29 3 47 9 43 5 -3 6 4 2 18 -10 30 -13
356 -3 371 3 7 4 16 2 20 -7 11 -11 883 -4 945 3 29 4 53 1 53 -4 0 -6 43 -6
95 0 52 3 95 8 95 10 0 9 34 -2 46 -5 5 -6 31 -1 59 4 27 6 78 3 112 -2 35 0
63 5 63 15 0 22 -42 10 -63 -7 -14 -7 -17 1 -13 7 5 11 -8 11 -38 0 -27 -5
-46 -11 -46 -8 0 -8 -4 -1 -13 8 -9 12 -175 13 -517 2 -617 2 -593 14 -602 7
-5 7 -10 0 -15 -12 -9 -14 -653 -3 -653 4 0 4 -10 -1 -23 -8 -19 -12 -217 -11
-486 0 -40 -4 -79 -10 -86 -6 -8 -7 -16 -2 -19 5 -3 10 -228 11 -508 2 -556 7
-991 12 -1053 9 -125 15 352 15 1358 1 816 -2 1137 -10 1137 -6 0 -4 5 4 10
12 7 12 12 2 22 -15 15 -16 32 -2 23 14 -9 9 77 -5 88 -6 4 -6 10 2 15 9 6 11
30 8 85 l-5 76 45 27 c51 29 49 25 32 79 -10 32 -17 40 -35 39 -12 -1 -25 3
-28 8 -3 5 -6 219 -7 476 -1 364 1 466 11 464 15 -3 16 10 0 26 -18 18 -19
1015 -1 1008 17 -7 17 2 -1 20 -12 12 -15 57 -15 244 1 203 7 269 22 213 4
-14 5 -14 6 3 1 13 9 24 21 27 19 5 20 0 20 -71 1 -140 7 -242 14 -249 8 -8 6
405 -2 469 -3 30 -11 41 -39 58 l-34 20 5 1528 c3 840 8 1570 12 1624 4 53 4
104 0 115 -4 10 -9 94 -12 186 -2 92 -9 236 -15 320 -6 84 -11 163 -10 176 0
13 -4 30 -10 37 -6 7 -8 17 -5 22 2 4 -6 62 -19 128 -13 65 -24 129 -25 141 0
24 -41 154 -66 213 -29 68 -118 235 -126 238 -4 2 -8 8 -8 13 0 9 -91 139
-115 165 -5 6 -23 28 -40 50 -75 95 -311 304 -343 304 -6 0 -12 4 -14 8 -4 12
-114 76 -178 105 -146 66 -199 88 -250 101 -30 8 -84 23 -120 35 -117 36 -271
56 -505 66 -255 11 -343 14 -348 9z m427 -654 c190 -22 387 -86 540 -178 102
-60 257 -211 324 -314 82 -127 136 -272 170 -458 16 -90 17 -582 14 -8780 -3
-7546 -6 -8699 -18 -8788 -50 -348 -211 -613 -480 -788 -148 -97 -289 -152
-474 -185 -111 -20 -137 -21 -675 -15 -308 3 -888 8 -1290 11 -401 3 -901 7
-1110 10 -209 3 -816 7 -1350 10 -533 3 -1103 7 -1265 10 -162 3 -812 7 -1445
10 -632 3 -1208 8 -1280 11 -221 9 -396 48 -560 124 -117 53 -194 107 -288
199 -164 159 -258 343 -306 595 -21 110 -23 338 -36 3596 -8 1920 -14 3550
-30 7290 -31 7201 -30 6596 -11 6687 24 120 61 224 122 343 154 304 407 491
772 571 92 20 129 22 702 26 436 4 615 2 642 -6 59 -18 89 -71 100 -179 26
-256 66 -361 188 -483 83 -83 173 -135 290 -166 61 -17 202 -18 2465 -16 2663
1 2487 -3 2630 67 123 61 224 161 285 280 44 87 59 152 71 306 10 135 21 172
58 195 31 19 1093 32 1245 15z m-9876 -2158 c2 -642 5 -1246 7 -1342 2 -96 7
-1151 10 -2345 4 -1193 8 -2305 10 -2470 5 -321 5 -9037 1 -9417 -1 -125 -5
-231 -9 -234 -4 -4 -7 24 -8 62 0 38 -2 150 -4 249 -2 99 -6 464 -9 810 -6
596 -9 1078 -21 2810 -3 407 -7 1451 -10 2320 -3 869 -7 1720 -10 1890 -7 442
-20 5414 -19 7095 1 1415 3 1536 36 1688 6 28 14 52 17 52 3 0 7 -525 9 -1168z
m11609 -3044 c-3 -8 -6 -5 -6 6 -1 11 2 17 5 13 3 -3 4 -12 1 -19z m1 -73 c1
-19 -3 -35 -8 -35 -6 0 -10 18 -10 41 0 49 16 44 18 -6z m-1 -85 c-1 -22 -5
-40 -10 -40 -4 0 -5 -4 -2 -10 3 -5 1 -10 -4 -10 -14 0 -14 26 -1 51 8 14 7
19 -1 19 -8 0 -8 4 1 15 18 21 19 20 17 -25z m1 -173 c2 -45 0 -102 -3 -126
-6 -42 -7 -43 -19 -20 -7 13 -9 26 -6 29 12 9 21 60 10 60 -5 0 -10 7 -10 16
0 8 4 12 10 9 9 -6 8 4 -7 43 -9 26 -9 45 0 65 14 31 21 10 25 -76z m-8 -217
c0 -11 -2 -20 -4 -20 -2 0 -6 9 -9 20 -3 11 -1 20 4 20 5 0 9 -9 9 -20z m-5
-90 c3 -5 1 -10 -4 -10 -6 0 -11 5 -11 10 0 6 2 10 4 10 3 0 8 -4 11 -10z m8
-202 c-9 -21 -10 -20 -11 11 0 25 2 31 10 23 8 -8 8 -18 1 -34z m3 -132 c0
-57 -5 -108 -10 -113 -5 -5 -7 -1 -3 8 3 9 0 22 -6 28 -9 9 -9 14 2 20 10 7
10 13 2 29 -6 11 -7 23 -2 26 4 3 6 28 3 56 -3 30 -1 50 6 50 6 0 9 -39 8
-104z m-11879 -78 c-2 -13 -4 -5 -4 17 -1 22 1 32 4 23 2 -10 2 -28 0 -40z
m11883 -165 c-1 -37 -1 -38 -14 -14 -14 25 -11 51 5 51 5 0 9 -17 9 -37z
m-11870 -200 c0 -10 -5 -25 -10 -33 -7 -11 -10 -7 -10 18 0 17 5 32 10 32 6 0
10 -8 10 -17z m-13 -115 c-3 -8 -6 -5 -6 6 -1 11 2 17 5 13 3 -3 4 -12 1 -19z
m11603 -2167 c0 -6 -4 -13 -10 -16 -5 -3 -10 1 -10 9 0 9 5 16 10 16 6 0 10
-4 10 -9z m-33 -673 c-3 -8 -6 -5 -6 6 -1 11 2 17 5 13 3 -3 4 -12 1 -19z m0
-140 c-3 -8 -6 -5 -6 6 -1 11 2 17 5 13 3 -3 4 -12 1 -19z m4 -75 c2 -23 0
-45 -4 -49 -4 -4 -7 17 -7 46 0 62 7 64 11 3z m-1 -183 l-7 -65 -1 80 c-1 45
2 73 7 65 4 -8 5 -44 1 -80z m6 -978 c5 -816 4 -903 -11 -929 -15 -26 -16 14
-11 537 3 311 6 731 6 934 0 203 3 367 6 364 3 -3 7 -411 10 -906z m4 -4190
c0 -2768 -2 -3171 -16 -3293 -8 -77 -19 -150 -24 -162 -8 -20 -4 4759 5 5343
2 124 4 468 4 765 1 478 3 538 16 521 13 -17 15 -413 15 -3174z m-11287 -2887
c4 -8 2 -17 -3 -20 -6 -4 -10 3 -10 14 0 25 6 27 13 6z m11454 -52 c-3 -10 -5
-4 -5 12 0 17 2 24 5 18 2 -7 2 -21 0 -30z m0 -70 c-3 -10 -5 -4 -5 12 0 17 2
24 5 18 2 -7 2 -21 0 -30z m-11456 -19 c-9 -28 -9 -29 -10 -3 -1 14 2 29 6 32
11 12 13 2 4 -29z m11456 -91 c-3 -10 -5 -4 -5 12 0 17 2 24 5 18 2 -7 2 -21
0 -30z m0 -155 c-3 -8 -6 -5 -6 6 -1 11 2 17 5 13 3 -3 4 -12 1 -19z m-17
-546 c0 -16 -6 -37 -14 -48 -13 -17 -14 -16 -6 19 4 20 6 37 3 37 -2 0 -1 5 2
10 10 17 15 11 15 -18z"/>
<path d="M243 20893 c-5 -16 -9 -213 -8 -440 0 -379 1 -414 18 -430 16 -16 17
4 17 440 0 265 -4 457 -9 457 -5 0 -13 -12 -18 -27z"/>
<path d="M244 19168 c-4 -7 -7 -392 -6 -857 2 -761 3 -846 18 -854 8 -5 19 -6
22 -2 8 8 3 1680 -4 1708 -6 20 -20 22 -30 5z"/>
<path d="M12310 18346 c0 -9 5 -16 10 -16 6 0 10 4 10 9 0 6 -4 13 -10 16 -5
3 -10 -1 -10 -9z"/>
<path d="M12352 17988 c1 -51 -2 -104 -7 -117 -4 -14 -3 -21 2 -18 5 3 9 -9 8
-28 0 -18 3 -31 7 -29 10 6 8 284 -2 284 -5 0 -8 -42 -8 -92z"/>
<path d="M12350 17721 c0 -11 4 -22 9 -25 5 -3 8 5 7 19 -1 29 -16 34 -16 6z"/>
<path d="M12340 17648 c0 -8 6 -23 14 -33 13 -18 14 -18 9 8 -6 29 -23 48 -23
25z"/>
<path d="M12348 17476 c-3 -15 1 -34 9 -43 13 -17 13 -16 4 3 -7 15 -7 24 1
32 9 9 9 15 1 23 -7 7 -12 3 -15 -15z"/>
<path d="M12350 17350 c0 -19 3 -21 12 -12 9 9 9 15 0 24 -9 9 -12 7 -12 -12z"/>
<path d="M12350 17288 c0 -9 5 -20 10 -23 13 -8 13 5 0 25 -8 13 -10 13 -10
-2z"/>
<path d="M12357 17219 c4 -13 8 -18 11 -10 2 7 -1 18 -6 23 -8 8 -9 4 -5 -13z"/>
<path d="M12362 17040 c0 -14 2 -19 5 -12 2 6 2 18 0 25 -3 6 -5 1 -5 -13z"/>
<path d="M12355 16925 c1 -25 5 -49 8 -52 4 -3 5 15 3 41 -1 25 -5 48 -8 52
-4 3 -5 -15 -3 -41z"/>
<path d="M243 16934 c-3 -8 -3 -46 0 -82 4 -37 7 -412 7 -834 1 -633 3 -768
15 -778 10 -8 15 -8 20 0 9 14 7 1674 -2 1695 -7 20 -32 19 -40 -1z"/>
<path d="M12347 16713 c-12 -11 -8 -40 8 -53 13 -11 14 -8 9 21 -8 40 -9 41
-17 32z"/>
<path d="M12341 16584 c0 -11 3 -14 6 -6 3 7 2 16 -1 19 -3 4 -6 -2 -5 -13z"/>
<path d="M12357 16503 c-3 -5 -1 -17 4 -28 7 -17 8 -17 8 8 1 27 -4 34 -12 20z"/>
<path d="M12306 16303 c9 -76 14 -80 14 -10 0 31 -5 59 -10 62 -7 4 -8 -13 -4
-52z"/>
<path d="M12362 16320 c0 -14 2 -19 5 -12 2 6 2 18 0 25 -3 6 -5 1 -5 -13z"/>
<path d="M12340 16274 c0 -6 7 -19 16 -30 14 -18 14 -18 3 6 -14 31 -19 36
-19 24z"/>
<path d="M12362 16200 c0 -14 2 -19 5 -12 2 6 2 18 0 25 -3 6 -5 1 -5 -13z"/>
<path d="M12342 16140 c0 -19 2 -27 5 -17 2 9 2 25 0 35 -3 9 -5 1 -5 -18z"/>
<path d="M12343 16067 c0 -15 3 -24 8 -22 4 3 10 -5 12 -17 4 -21 4 -21 6 3 0
14 -5 34 -13 44 -13 18 -13 17 -13 -8z"/>
<path d="M12270 12829 c0 -34 3 -60 6 -56 10 9 12 107 3 113 -5 3 -9 -23 -9
-57z"/>
<path d="M12271 12674 c0 -11 3 -14 6 -6 3 7 2 16 -1 19 -3 4 -6 -2 -5 -13z"/>
<path d="M12268 12563 c-4 -33 -3 -117 1 -292 1 -24 3 -42 6 -39 7 6 8 358 2
364 -2 3 -6 -12 -9 -33z"/>
<path d="M12267 12213 c-4 -3 -7 -11 -7 -17 0 -6 5 -5 12 2 6 6 9 14 7 17 -3
3 -9 2 -12 -2z"/>
<path d="M12269 12153 c-3 -57 0 -185 5 -190 3 -3 5 42 5 101 0 58 -2 106 -4
106 -3 0 -5 -8 -6 -17z"/>
<path d="M12268 11922 c-10 -37 -7 -1553 3 -1547 5 4 9 32 9 63 0 31 1 115 3
185 2 71 0 130 -4 132 -3 3 -4 22 0 42 3 21 5 103 4 183 -1 80 -2 328 -3 553
-1 224 -3 407 -5 407 -1 0 -5 -8 -7 -18z"/>
<path d="M12267 10338 c-2 -7 -1 -33 3 -58 l8 -45 -1 58 c0 58 -1 66 -10 45z"/>
<path d="M12265 10220 c3 -5 8 -10 11 -10 2 0 4 5 4 10 0 6 -5 10 -11 10 -5 0
-7 -4 -4 -10z"/>
<path d="M12270 10186 c0 -7 -3 -34 -6 -60 -4 -26 -3 -46 3 -46 5 0 9 27 10
60 1 33 0 60 -2 60 -3 0 -5 -6 -5 -14z"/>
<path d="M12261 9794 c0 -11 3 -14 6 -6 3 7 2 16 -1 19 -3 4 -6 -2 -5 -13z"/>
<path d="M12271 9294 c0 -11 3 -14 6 -6 3 7 2 16 -1 19 -3 4 -6 -2 -5 -13z"/>
</g>
</svg>
