<svg id="Capa_1" enable-background="new 0 0 512 512" height="512" viewBox="0 0 512 512" width="512" xmlns="http://www.w3.org/2000/svg" xmlns:xlink="http://www.w3.org/1999/xlink"><linearGradient id="SVGID_1_" gradientUnits="userSpaceOnUse" x1="256" x2="256" y1="512" y2="0"><stop offset="0" stop-color="#addcff"/><stop offset=".5028" stop-color="#eaf6ff"/><stop offset="1" stop-color="#eaf6ff"/></linearGradient><linearGradient id="SVGID_2_" gradientUnits="userSpaceOnUse" x1="256" x2="256" y1="407" y2="105"><stop offset="0" stop-color="#00c0ff"/><stop offset="1" stop-color="#5558ff"/></linearGradient><g><g><circle cx="256" cy="256" fill="url(#SVGID_1_)" r="256"/></g><g><g><path d="m362.588 247.118h35.529c4.91 0 8.882-3.973 8.882-8.882v-35.529c0-4.91-3.973-8.882-8.882-8.882h-35.529c-4.91 0-8.882 3.973-8.882 8.882v8.882h-17.765v-26.647c0-4.91-3.973-8.882-8.882-8.882h-26.647v-17.765h8.882c4.91 0 8.882-3.973 8.882-8.882v-35.529c0-4.91-3.973-8.882-8.882-8.882h-35.529c-4.91 0-8.882 3.973-8.882 8.882v35.529c0 4.91 3.973 8.882 8.882 8.882h8.882v17.765h-53.294v-17.765h8.882c4.91 0 8.882-3.973 8.882-8.882v-35.529c0-4.91-3.973-8.882-8.882-8.882h-35.529c-4.91 0-8.882 3.973-8.882 8.882v35.529c0 4.91 3.973 8.882 8.882 8.882h8.882v17.765h-26.647c-4.91 0-8.882 3.973-8.882 8.882v26.647h-17.765v-8.882c0-4.91-3.973-8.882-8.882-8.882h-35.529c-4.91 0-8.882 3.973-8.882 8.882v35.529c0 4.91 3.973 8.882 8.882 8.882h35.529c4.91 0 8.882-3.973 8.882-8.882v-8.882h17.765v53.294h-17.765v-8.882c0-4.91-3.973-8.882-8.882-8.882h-35.529c-4.91 0-8.882 3.973-8.882 8.882v35.529c0 4.91 3.973 8.882 8.882 8.882h35.529c4.91 0 8.882-3.973 8.882-8.882v-8.882h17.765v26.647c0 4.91 3.973 8.882 8.882 8.882h26.647v17.765h-8.882c-4.91 0-8.882 3.973-8.882 8.882v35.53c0 4.91 3.973 8.882 8.882 8.882h35.529c4.91 0 8.882-3.973 8.882-8.882v-35.53c0-4.909-3.973-8.882-8.882-8.882h-8.882v-17.765h53.294v17.765h-8.882c-4.91 0-8.882 3.973-8.882 8.882v35.53c0 4.91 3.973 8.882 8.882 8.882h35.529c4.91 0 8.882-3.973 8.882-8.882v-35.53c0-4.909-3.973-8.882-8.882-8.882h-8.882v-17.765h26.647c4.91 0 8.882-3.973 8.882-8.882v-26.647h17.765v8.882c0 4.91 3.973 8.882 8.882 8.882h35.529c4.91 0 8.882-3.973 8.882-8.882v-35.529c0-4.91-3.973-8.882-8.882-8.882h-35.529c-4.91 0-8.882 3.973-8.882 8.882v8.882h-17.765v-53.294h17.765v8.882c0 4.909 3.973 8.882 8.882 8.882zm-62.176 44.411c0 4.91-3.973 8.882-8.882 8.882h-71.059c-4.91 0-8.882-3.973-8.882-8.882v-71.059c0-4.91 3.973-8.882 8.882-8.882h71.059c4.91 0 8.882 3.973 8.882 8.882zm-71.059-8.882h53.294v-53.294h-53.294z" fill="url(#SVGID_2_)"/></g></g></g></svg>